<svg width="61" height="61" viewBox="0 0 61 61" fill="none" xmlns="http://www.w3.org/2000/svg">
<circle cx="30.5" cy="30.5" r="30.5" fill="#F8F7F8"/>
<path d="M22.0037 19.9275C21.3768 19.2863 20.3604 19.2863 19.7335 19.9275C19.1066 20.5688 19.1066 21.6085 19.7335 22.2497L28.2299 30.9407L19.7334 39.6318C19.1065 40.2731 19.1065 41.3128 19.7334 41.954C20.3602 42.5953 21.3766 42.5953 22.0035 41.954L30.5001 33.2629L38.9967 41.954C39.6236 42.5953 40.64 42.5953 41.2669 41.954C41.8937 41.3128 41.8937 40.2731 41.2669 39.6319L32.7703 30.9407L41.2667 22.2497C41.8936 21.6085 41.8936 20.5688 41.2667 19.9275C40.6398 19.2863 39.6234 19.2863 38.9965 19.9275L30.5001 28.6185L22.0037 19.9275Z" fill="#0B0E26"/>
</svg>
