<svg width="28" height="28" viewBox="0 0 28 28" fill="none" xmlns="http://www.w3.org/2000/svg">
<path d="M7 5.83333H16.3333C16.9777 5.83333 17.5 6.35567 17.5 7V8.16667H19.8333V7C19.8333 5.067 18.2663 3.5 16.3333 3.5H7C5.067 3.5 3.5 5.067 3.5 7V16.3333C3.5 18.2663 5.067 19.8333 7 19.8333H8.16667V17.5H7C6.35567 17.5 5.83333 16.9777 5.83333 16.3333V7C5.83333 6.35567 6.35567 5.83333 7 5.83333Z" fill="#828282"/>
<path fill-rule="evenodd" clip-rule="evenodd" d="M21 10.5H11.6667C11.0224 10.5 10.5 11.0223 10.5 11.6667V21C10.5 21.6443 11.0224 22.1667 11.6667 22.1667H21C21.6444 22.1667 22.1667 21.6443 22.1667 21V11.6667C22.1667 11.0223 21.6444 10.5 21 10.5ZM11.6667 8.16666C9.73369 8.16666 8.16669 9.73366 8.16669 11.6667V21C8.16669 22.933 9.73369 24.5 11.6667 24.5H21C22.933 24.5 24.5 22.933 24.5 21V11.6667C24.5 9.73366 22.933 8.16666 21 8.16666H11.6667Z" fill="#828282"/>
</svg>
