<svg width="34" height="14" viewBox="0 0 34 14" fill="none" xmlns="http://www.w3.org/2000/svg">
<path d="M29.4884 2.33112C32.9048 3.60219 34.1676 7.35191 33.1671 10.8571C32.6854 12.5447 30.9976 13.5876 29.2728 13.2636L25.4462 12.5446C23.8175 12.2386 22.4967 11.0473 22.0249 9.45866L21.6406 8.16456C21.5294 7.78995 21.2733 7.47586 20.9053 7.34432C20.2349 7.10466 18.9618 6.75949 17.0733 6.69701C15.1847 6.63454 13.8916 6.89483 13.2068 7.08965C12.831 7.19659 12.5546 7.49306 12.4189 7.85951L11.9499 9.12537C11.3741 10.6794 9.97755 11.7808 8.33217 11.9785L4.46638 12.443C2.72392 12.6523 1.10877 11.5001 0.739646 9.78436C-0.0270319 6.22074 1.48089 2.56268 4.97379 1.52017C7.91759 0.641543 12.0325 -0.103955 17.2925 0.0700466C22.5525 0.244048 26.6091 1.25986 29.4884 2.33112Z" fill="white"/>
</svg>
