<svg width="20" height="199" viewBox="0 0 20 199" fill="none" xmlns="http://www.w3.org/2000/svg">
<rect x="8" width="3" height="100" fill="black"/>
<rect x="8" y="57" width="3" height="50" fill="#FF195E"/>
<path d="M14.126 194.422C14.126 193.288 13.818 192.378 13.188 191.706C12.558 191.034 11.816 190.698 10.962 190.698C10.164 190.698 9.506 190.964 9.002 191.482C8.484 192 8.022 192.938 7.616 194.296C7.21 195.64 6.762 196.326 5.936 196.326C5.054 196.326 4.438 195.556 4.438 194.492C4.438 193.442 4.956 192.7 5.978 192.28L5.208 190.852C3.85 191.37 2.884 192.602 2.884 194.45C2.884 195.472 3.192 196.326 3.808 197.04C4.41 197.74 5.152 198.09 6.034 198.09C6.874 198.09 7.546 197.81 8.036 197.25C8.512 196.718 8.932 195.864 9.31 194.674C9.8 193.106 10.262 192.476 11.06 192.476C11.97 192.476 12.558 193.274 12.558 194.394C12.558 195.584 11.914 196.536 10.738 196.998L11.494 198.454C13.174 197.838 14.126 196.34 14.126 194.422ZM14.126 181.843C14.126 180.457 13.678 179.225 13.006 178.399C12.334 177.573 11.592 177.041 10.822 176.775L10.108 178.343C10.822 178.609 11.41 179.071 11.858 179.715C12.292 180.345 12.516 181.045 12.516 181.801C12.516 182.809 12.138 183.691 11.396 184.433C10.64 185.175 9.674 185.539 8.498 185.539C7.308 185.539 6.356 185.161 5.614 184.419C4.872 183.677 4.494 182.795 4.494 181.801C4.494 180.079 5.474 178.931 6.888 178.385L6.174 176.831C5.39 177.069 4.648 177.601 3.99 178.385C3.318 179.169 2.884 180.387 2.884 181.773C2.884 183.299 3.43 184.601 4.508 185.707C5.586 186.813 6.93 187.359 8.554 187.359C10.276 187.359 11.746 186.687 12.684 185.637C13.594 184.587 14.126 183.243 14.126 181.843ZM14 172.955L14 171.233L9.842 171.233L9.842 169.147L14 166.767L14 164.821L9.548 167.425C9.058 165.955 7.938 165.101 6.412 165.101C5.446 165.101 4.648 165.409 4.004 166.011C3.36 166.613 3.038 167.565 3.038 168.839L3.038 172.955L14 172.955ZM4.634 171.233L4.634 169.021C4.634 167.229 5.614 166.851 6.454 166.851C7.462 166.851 8.288 167.495 8.288 169.021L8.288 171.233L4.634 171.233ZM8.54 161.689C10.15 161.689 11.48 161.143 12.544 160.065C13.594 158.987 14.126 157.657 14.126 156.089C14.126 154.521 13.594 153.191 12.516 152.085C11.438 150.979 10.094 150.433 8.498 150.433C6.902 150.433 5.572 150.979 4.494 152.071C3.416 153.149 2.884 154.479 2.884 156.047C2.884 157.601 3.43 158.931 4.522 160.037C5.614 161.143 6.958 161.689 8.54 161.689ZM12.53 156.061C12.53 157.139 12.138 158.035 11.354 158.777C10.57 159.519 9.618 159.883 8.498 159.883C7.378 159.883 6.426 159.519 5.656 158.777C4.872 158.035 4.48 157.139 4.48 156.061C4.48 154.997 4.872 154.101 5.656 153.359C6.426 152.617 7.378 152.239 8.498 152.239C9.618 152.239 10.57 152.617 11.354 153.359C12.138 154.101 12.53 154.997 12.53 156.061ZM12.404 144.634L3.038 144.634L3.038 146.356L14 146.356L14 139.692L12.404 139.692L12.404 144.634ZM12.404 134.349L3.038 134.349L3.038 136.071L14 136.071L14 129.407L12.404 129.407L12.404 134.349Z" fill="black"/>
</svg>
