<svg width="23" height="23" viewBox="0 0 23 23" fill="none" xmlns="http://www.w3.org/2000/svg">
<path fill-rule="evenodd" clip-rule="evenodd" d="M11.5 22.75C17.7132 22.75 22.75 17.7132 22.75 11.5C22.75 5.2868 17.7132 0.25 11.5 0.25C5.2868 0.25 0.25 5.2868 0.25 11.5C0.25 17.7132 5.2868 22.75 11.5 22.75ZM7.37392 13.2996C7.12517 12.7302 6.46196 12.4704 5.89261 12.7191C5.32326 12.9679 5.06337 13.6311 5.31213 14.2004C6.3527 16.582 8.7303 18.25 11.5 18.25C14.2697 18.25 16.6473 16.582 17.6878 14.2004C17.9366 13.6311 17.6767 12.9679 17.1073 12.7191C16.538 12.4704 15.8748 12.7302 15.626 13.2996C14.9306 14.8913 13.3435 16 11.5 16C9.65644 16 8.06935 14.8913 7.37392 13.2996ZM8.125 8.125C8.125 8.74632 7.62132 9.25 7 9.25C6.37868 9.25 5.875 8.74632 5.875 8.125C5.875 7.50368 6.37868 7 7 7C7.62132 7 8.125 7.50368 8.125 8.125ZM16 9.25C16.6213 9.25 17.125 8.74632 17.125 8.125C17.125 7.50368 16.6213 7 16 7C15.3787 7 14.875 7.50368 14.875 8.125C14.875 8.74632 15.3787 9.25 16 9.25Z" fill="#CDCDCD"/>
</svg>
