<svg width="24" height="24" viewBox="0 0 24 24" fill="none" xmlns="http://www.w3.org/2000/svg">
<path fill-rule="evenodd" clip-rule="evenodd" d="M17.8099 14.3925C18.0441 14.2154 18.2523 14.0038 18.427 13.7634C18.7994 13.2508 19 12.6336 19 12C19 11.3665 18.7994 10.7492 18.427 10.2367C18.2523 9.9961 18.0438 9.78441 17.8096 9.60723C17.7526 9.56413 17.6979 9.51734 17.6462 9.46742C17.5988 9.42165 17.554 9.37325 17.5122 9.32262C17.2476 9.00152 17.1077 8.59079 17.236 8.19579C17.4067 7.67053 17.9781 7.37486 18.459 7.64649C18.6527 7.7559 18.8388 7.87804 19.0159 8.01203M19.0159 8.01203C19.4063 8.30727 19.7538 8.66025 20.0451 9.06109C20.6657 9.91532 21 10.9441 21 12C21 13.0559 20.6657 14.0847 20.0451 14.9389C19.7538 15.3399 19.4064 15.6927 19.0159 15.988C18.8388 16.122 18.6527 16.2441 18.459 16.3535C17.9781 16.6252 17.4067 16.3295 17.236 15.8042C17.1077 15.4092 17.2476 14.9985 17.5122 14.6774C17.554 14.6268 17.5988 14.5784 17.6462 14.5326C17.6979 14.4827 17.753 14.4356 17.8099 14.3925" fill="white"/>
<path d="M16 19.5925V4.40755C16 2.68923 13.9762 1.77087 12.683 2.90239L8 7.00001H6C4.34315 7.00001 3 8.34316 3 10V14C3 15.6569 4.34315 17 6 17H8L12.683 21.0976C13.9762 22.2291 16 21.3108 16 19.5925Z" fill="white"/>
</svg>
